<svg width="604" height="696" viewBox="0 0 604 696" fill="none" xmlns="http://www.w3.org/2000/svg">
<mask id="mask0_123_14" style="mask-type:luminance" maskUnits="userSpaceOnUse" x="0" y="246" width="470" height="451">
<path d="M0 246.601H469.031V696H0V246.601Z" fill="white"/>
</mask>
<g mask="url(#mask0_123_14)">
<path fill-rule="evenodd" clip-rule="evenodd" d="M234.447 246.527C363.912 246.527 468.831 347.073 468.831 471.093C468.831 565.748 407.707 646.721 321.201 679.767L317.778 609.002V608.868C317.98 594.876 324.143 583.851 337.817 578.301L339.583 577.633L339.676 577.589L339.784 577.544L339.954 577.485C350.036 573.582 358.244 568.315 363.834 559.204C370.803 547.852 372.166 532.732 372.166 519.852C372.166 495.102 364.547 465.885 351.43 444.487C342.107 429.293 327.411 413.905 307.557 413.905C287.704 413.905 272.992 429.293 263.669 444.487C250.553 465.885 242.949 495.102 242.949 519.852C242.949 532.747 244.296 547.867 251.28 559.204C256.933 568.374 265.233 573.657 275.346 577.559C275.625 577.678 275.919 577.797 276.198 577.9H276.275L277.158 578.257C290.879 583.791 297.135 594.698 297.321 608.868V609.002L293.48 688.492C274.618 693.181 254.842 695.674 234.447 695.674C213.339 695.674 192.897 692.988 173.447 687.972L169.838 613.557V613.394C170.04 599.06 176.42 587.753 190.435 582.055L192.231 581.387L192.293 581.373L192.355 581.343L192.557 581.269C202.437 577.426 210.505 572.277 216.003 563.329C222.894 552.126 224.211 537.109 224.211 524.393C224.211 523.161 224.164 521.93 224.087 520.698C224.04 519.986 223.978 519.288 223.87 518.591L223.746 517.552L223.963 516.855L215.43 421.859L206.525 421.873L205.751 522.256L190.9 523.68L182.088 410.21L172.425 410.759L170.504 525.075L165.254 525.283C164.155 525.328 163.055 525.342 161.971 525.342C160.872 525.342 159.757 525.328 158.657 525.283L153.439 525.075L150.744 410.759L141.081 410.225L133.028 523.695L118.176 522.271L117.418 421.873H108.451L96.9293 516.899L97.1306 517.567L97.0068 518.576C96.9138 519.288 96.8519 519.986 96.8054 520.698C96.728 521.93 96.6815 523.161 96.6815 524.393C96.6815 537.109 97.9979 552.126 104.889 563.329C110.433 572.351 118.595 577.5 128.537 581.343C128.784 581.432 129.017 581.521 129.234 581.61H129.311L130.349 582.026C144.395 587.694 150.837 598.882 151.038 613.394V613.557L147.848 679.871C61.2336 646.885 0.0166016 565.852 0.0166016 471.108C0.0785462 347.058 104.998 246.527 234.447 246.527Z" fill="#B78718"/>
</g>
<path d="M325.35 105.902C329.531 105.902 329.531 99.6406 325.35 99.6406C321.184 99.6406 321.184 105.902 325.35 105.902Z" fill="#B78718"/>
<mask id="mask1_123_14" style="mask-type:luminance" maskUnits="userSpaceOnUse" x="34" y="0" width="571" height="441">
<path d="M34.0459 0H604V440.555H34.0459V0Z" fill="white"/>
</mask>
<g mask="url(#mask1_123_14)">
<path d="M52.5457 84.3129C56.0146 76.9827 60.0565 69.5189 65.3373 62.1887C70.4942 54.8585 76.6113 47.3799 84.6796 40.1832C88.706 36.5923 93.3054 32.9865 98.4468 29.6627C100.677 28.1937 102.628 26.9918 104.858 25.6563C106.933 24.3208 109.163 23.1189 111.393 21.9318C120.298 16.9906 130.039 12.4649 140.879 8.72556C151.596 5.0011 163.427 2.19662 175.382 0.994698C178.449 0.727607 181.376 0.460512 184.426 0.326966C187.493 0.19342 190.419 0.19342 193.331 0.326966C199.324 0.460512 205.023 1.12824 210.583 2.06307C221.717 3.93273 231.737 6.98946 240.781 10.8623C249.685 14.7203 257.614 19.1274 264.707 23.9202C268.191 26.324 271.66 28.8614 274.866 31.384C278.071 33.9214 281.122 36.5923 283.91 39.2484C286.837 41.9193 289.609 44.5902 292.257 47.3799C293.651 48.7153 294.905 50.1844 296.144 51.5198L298.095 53.6566L299.768 55.6449C301.998 58.1823 304.088 60.5862 306.303 63.1235L309.648 66.848L313.132 70.5873C330.244 88.7051 348.735 106.571 367.799 124.303C370.725 123.635 373.652 123.101 376.703 122.7C380.606 122.032 384.493 121.632 388.535 121.246C392.422 120.845 396.463 120.578 400.351 120.445C402.302 120.311 404.392 120.311 406.344 120.311C408.295 120.311 410.37 120.311 412.321 120.311C428.179 120.578 444.316 122.834 459.214 127.775C462.961 128.977 466.585 130.431 470.193 132.034C473.817 133.636 477.162 135.506 480.492 137.375C483.837 139.364 486.887 141.501 489.814 143.771C492.741 146.041 495.513 148.564 498.022 151.235C499.276 152.57 500.531 153.906 501.646 155.226C502.761 156.562 503.86 158.031 504.975 159.5C507.066 162.304 508.878 165.361 510.55 168.299C511.805 170.569 512.904 172.958 513.88 175.362C517.086 175.763 520.152 176.297 523.063 176.965C530.156 178.434 537.125 180.288 543.799 182.826C557.148 187.767 569.259 194.83 578.86 203.896C583.723 208.422 587.765 213.349 591.234 218.69C592.906 221.347 594.439 224.017 595.833 226.688C597.227 229.478 598.342 232.283 599.302 235.087C601.253 240.681 602.647 246.409 603.344 252.151C603.483 253.62 603.623 254.941 603.762 256.41C603.901 257.879 603.901 259.214 604.041 260.683C604.041 262.152 604.18 263.473 604.18 264.942V269.216C603.901 275.21 602.926 281.472 600.974 288.135C598.899 294.812 595.694 301.742 590.676 308.671C588.183 312.143 585.256 315.601 581.772 318.806C578.303 321.996 574.539 325.068 570.513 327.872C566.471 330.662 562.166 333.066 557.706 335.069C553.261 337.191 548.801 338.793 544.357 340.262C535.452 343.2 526.826 344.937 518.479 345.99C510.272 347.058 502.343 347.459 494.693 347.593C491.208 347.593 487.724 347.459 484.394 347.326C482.582 354.923 480.77 362.387 478.959 369.999C477.023 377.997 474.932 385.995 472.841 393.993C470.751 401.991 468.676 409.989 466.446 417.986L465.331 422.112C464.076 426.652 460.592 430.911 455.032 433.849C444.595 439.577 431.106 438.241 424.85 430.911C424.85 430.911 424.571 430.644 424.432 430.51L424.013 430.11L423.038 429.308L421.087 427.587C419.832 426.385 418.438 425.317 417.06 424.115C414.273 421.845 411.485 419.589 408.698 417.319C402.999 412.778 397.16 408.252 391.307 403.979C379.491 395.195 366.962 386.796 354.171 378.65C341.224 370.518 327.875 362.787 313.953 355.457C300.046 348.127 285.443 341.331 270.266 334.802C274.726 335.202 279.171 335.603 283.631 336.271C285.861 336.538 288.076 336.939 290.306 337.191L296.841 338.259L300.186 338.793L303.391 339.461L309.927 340.797C312.017 341.197 314.232 341.731 316.322 342.266C318.413 342.8 320.643 343.2 322.718 343.735C339.691 347.86 356.261 353.068 372.119 359.063C387.977 365.058 403.417 371.854 418.16 379.317C419.972 380.252 421.644 381.187 423.456 381.988C423.735 379.584 424.013 377.329 424.432 374.925C423.874 374.524 423.317 373.99 422.759 373.59C421.087 372.254 419.275 370.919 417.463 369.598C410.37 364.39 403.138 359.33 395.488 354.522C387.838 349.729 379.909 345.204 371.562 340.93C363.215 336.805 354.449 333.066 344.848 330.128C355.425 330.528 365.987 331.864 376.424 333.733C386.723 335.603 396.882 337.992 406.901 340.663C414.133 342.666 421.226 344.803 428.179 346.925C428.319 346.257 428.319 345.471 428.458 344.803C428.597 343.467 428.876 342.132 429.016 340.797C426.089 338.259 423.177 335.603 420.111 333.199C415.806 329.861 411.346 326.403 406.483 323.465C401.605 320.408 396.603 317.604 390.765 315.334C397.579 315.067 404.532 315.601 411.346 316.269C418.16 317.07 424.85 318.138 431.524 319.474C431.803 319.474 431.942 319.607 432.221 319.607C432.361 318.806 432.639 317.871 432.918 317.07C437.502 305.065 453.499 297.067 468.676 299.204L471.448 299.605L474.514 300.005C475.768 300.139 477.023 300.273 478.262 300.406C480.77 300.673 483.279 300.94 485.927 301.074C491.069 301.475 496.071 301.475 501.088 301.341C510.829 301.207 520.152 299.738 526.408 297.602C529.614 296.533 531.968 295.346 533.919 294.144C534.895 293.477 535.731 292.809 536.567 292.141C537.404 291.34 538.1 290.539 538.782 289.604C540.315 287.734 541.569 285.212 542.684 282.273C543.66 279.335 544.496 275.878 544.775 272.272L544.914 271.605V270.818L545.054 269.349C545.193 268.414 545.193 267.346 545.193 266.411V263.473C545.193 262.538 545.193 261.618 545.054 260.683C544.775 256.944 544.357 253.353 543.381 249.881C542.545 246.409 541.291 243.085 539.757 240.013C538.24 236.957 536.289 234.019 533.919 231.214C531.55 228.425 528.917 225.887 525.851 223.483C522.785 221.079 519.316 218.958 515.552 216.954C511.805 214.951 507.624 213.349 503.318 211.894C501.088 211.227 498.858 210.559 496.628 209.891C495.513 209.624 494.414 209.357 493.299 209.09L491.766 208.823L491.069 208.689H490.651H490.79L472.702 195.498C472.423 190.69 471.866 185.897 470.611 181.357C469.357 176.831 467.561 172.424 465.191 168.299C460.329 160.034 452.942 152.57 443.077 146.427C438.199 143.37 432.639 140.699 426.786 138.295C423.874 137.108 420.808 136.04 417.602 134.972C414.412 133.903 411.206 132.968 407.877 132.034C406.204 131.633 404.532 131.232 402.859 130.832C401.187 130.431 399.53 130.03 397.718 129.645C394.233 128.843 390.765 128.309 387.141 127.641C381.163 126.707 375.17 125.772 368.914 125.238C370.029 126.306 371.144 127.374 372.259 128.309L387.838 142.569L403.556 156.962C414.133 166.563 424.571 176.163 435.133 186.031C427.343 183.494 419.972 180.556 412.6 177.499C408.976 176.03 405.229 174.427 401.605 172.825L390.904 168.032C376.564 161.503 362.796 154.44 349.293 147.095C335.804 139.631 322.718 131.9 310.066 123.501C297.398 115.236 285.164 106.437 273.472 97.1037C270.545 94.7147 267.634 92.4444 264.846 90.0406C261.919 87.6516 259.147 85.2478 256.36 82.7104L252.473 79.3865C251.218 78.3182 249.964 77.2498 248.71 76.1814C246.201 74.0447 243.708 72.0415 241.059 70.1867C235.902 66.3138 230.622 62.7229 225.201 59.5178C219.766 56.4462 214.206 53.6566 208.647 51.6534C203.072 49.5166 197.652 48.1812 192.216 47.3799C186.935 46.5934 181.654 46.5934 176.358 47.1128C171.077 47.647 165.657 48.9824 159.943 50.8521C157.031 51.7869 154.244 52.9888 151.177 54.3243C148.266 55.6449 145.2 57.1139 142.273 58.583C140.74 59.3842 139.222 60.1855 137.828 61.1203C136.295 61.9216 134.762 62.8564 133.368 63.7764C131.556 64.8448 129.621 66.3138 127.53 67.9164C123.488 71.255 119.462 75.6472 115.838 80.4401C112.23 85.2478 108.745 90.4412 105.679 95.9166C102.628 101.377 99.98 107.105 97.6106 112.847C95.2567 118.709 93.166 124.57 91.4935 130.565C89.6817 136.574 88.2879 142.702 87.1884 148.697C84.819 160.969 83.8433 173.225 83.8433 185.497C83.9827 205.885 87.4671 226.154 95.1173 245.489C95.2567 245.489 95.3961 245.355 95.3961 245.355C99.7012 244.02 104.022 242.684 108.327 241.349C107.77 237.743 107.491 234.286 107.212 230.68C106.655 223.483 106.515 216.287 106.655 209.09C106.794 201.893 107.212 194.697 108.048 187.5C108.885 180.288 110 173.225 111.393 166.029C112.787 158.965 114.583 151.769 116.535 144.706L118.068 139.364C118.625 137.643 119.183 135.906 119.88 134.17C120.995 130.698 122.389 127.241 123.627 123.769C129.063 109.909 135.738 96.3173 143.667 83.111C138.943 96.8366 135.598 110.711 133.647 124.436C133.229 127.908 132.671 131.232 132.393 134.705C132.253 136.441 132.114 138.162 131.974 139.764L131.696 144.839C131.432 151.635 131.293 158.431 131.696 165.094C131.974 171.756 132.532 178.434 133.508 184.963C134.483 191.491 135.598 198.02 137.131 204.431C138.665 210.826 140.461 217.088 142.552 223.216C143.667 226.288 144.782 229.345 145.897 232.283C145.897 232.416 146.036 232.55 146.036 232.683C151.317 231.748 156.752 231.081 162.033 230.413C162.033 229.879 162.173 229.226 162.173 228.558C162.591 224.151 163.148 219.759 163.984 215.485C165.518 206.82 167.453 198.288 170.102 189.889L171.077 186.699L172.192 183.494C172.889 181.357 173.586 179.368 174.422 177.232C176.079 173.092 177.612 168.967 179.564 164.827C183.187 156.695 187.632 148.697 192.216 140.833C190.838 149.098 189.723 157.229 189.583 165.361C189.304 169.367 189.444 173.359 189.583 177.365C189.583 179.368 189.862 181.357 189.862 183.36L190.001 186.298L190.28 189.221C191.116 197.086 192.495 204.683 194.306 212.162C195.282 215.886 196.397 219.625 197.512 223.216C198.07 224.685 198.627 226.288 199.185 227.757H211.419C211.558 226.555 211.698 225.487 211.837 224.285C212.534 218.423 213.509 212.696 215.043 207.087L215.6 204.95L216.158 202.828C216.576 201.359 216.994 200.024 217.412 198.555C218.372 195.765 219.208 192.96 220.323 190.29C222.275 184.829 224.923 179.368 227.555 174.16C228.252 179.502 228.949 184.695 230.343 189.755C230.9 192.293 231.737 194.83 232.573 197.219C232.991 198.421 233.409 199.623 233.827 200.958L234.524 202.828L235.221 204.549C237.157 209.357 239.387 214.016 241.896 218.423C243.15 220.694 244.528 222.816 245.922 224.952C246.619 226.021 247.316 227.089 248.152 228.024C248.57 228.558 248.849 228.959 249.267 229.478C249.406 229.612 249.546 229.879 249.685 230.012C255.245 230.546 260.68 231.214 265.961 232.015C279.171 233.885 292.117 236.289 304.77 239.212C317.437 242.017 329.687 245.489 341.642 249.347C347.635 251.216 353.474 253.22 359.312 255.475C365.166 257.612 370.725 259.882 376.424 262.286C387.559 267.079 398.415 272.139 408.434 278.148C382.96 274.142 357.64 270.937 332.32 268.548C319.667 267.346 307.139 266.411 294.487 265.743C287.936 265.343 281.54 265.209 275.145 264.942C269.027 264.809 263.034 264.675 256.917 264.675C244.389 264.675 232.015 265.076 219.626 265.743C218.511 265.877 217.273 265.877 216.158 266.01C214.206 266.144 212.255 266.278 210.443 266.411L208.089 266.545L205.859 266.812L201.26 267.212L196.676 267.613C195.143 267.747 193.61 268.014 192.076 268.147C189.026 268.548 186.099 268.815 183.048 269.349L174.143 270.685L171.913 271.07L169.683 271.471L165.239 272.272L160.779 273.074C159.246 273.341 157.852 273.741 156.474 274.008C153.547 274.676 150.62 275.344 147.848 276.012L139.361 278.282L137.271 278.816C136.574 278.95 135.877 279.202 135.18 279.469L131.014 280.804C130.317 280.938 129.621 281.205 128.924 281.339C127.53 285.078 125.997 288.936 124.464 292.675C124.464 292.809 124.324 292.942 124.324 293.076L120.019 303.997L119.74 304.531L115.002 316.001C112.926 321.061 110.836 326.136 108.745 331.196C108.885 331.196 109.024 331.196 109.303 331.196C116.535 330.929 123.627 330.795 130.736 330.795C134.344 330.795 137.828 330.795 141.437 330.929C145.06 330.929 148.545 331.196 152.014 331.196C159.106 331.463 166.075 331.864 173.168 332.398C176.637 332.665 180.121 332.932 183.59 333.333L188.886 333.867L194.028 334.401C200.981 335.202 207.81 336.137 214.624 337.191L224.783 338.927C228.113 339.461 231.458 340.262 234.803 340.93C248.152 343.735 261.238 346.925 273.751 351.065C275.284 351.599 276.956 352 278.49 352.534L283.073 354.122L287.657 355.724C289.191 356.258 290.724 356.792 292.257 357.46C295.323 358.662 298.234 359.864 301.161 361.066C302.694 361.6 304.088 362.253 305.606 362.921L309.927 364.924C312.853 366.259 315.625 367.461 318.413 369.064L326.621 373.323C329.269 374.792 331.901 376.394 334.55 377.997L338.452 380.386L342.2 382.923C344.709 384.526 347.078 386.262 349.571 387.983C351.941 389.719 354.31 391.589 356.54 393.325L360.009 395.981C361.124 396.916 362.1 397.851 363.215 398.785C365.29 400.655 367.38 402.658 369.471 404.513C366.405 403.46 363.493 402.391 360.566 401.323C359.033 400.789 357.64 400.254 356.122 399.72L351.662 398.251C348.596 397.316 345.684 396.248 342.757 395.313C339.691 394.393 336.64 393.592 333.713 392.657L329.269 391.322L324.669 390.12L315.625 387.716C309.508 386.395 303.531 384.793 297.259 383.591L292.675 382.656C291.142 382.389 289.609 381.988 288.076 381.721C285.025 381.187 281.819 380.653 278.753 380.119C275.702 379.584 272.496 379.184 269.446 378.65L264.846 377.997C263.313 377.73 261.641 377.596 260.123 377.463C247.595 375.726 234.942 374.658 222.275 373.723C209.607 372.788 196.815 372.388 184.008 372.254H174.422C171.217 372.254 168.011 372.254 164.821 372.388C161.615 372.521 158.409 372.521 155.219 372.655C152.014 372.788 148.808 372.788 145.618 372.922C139.222 373.189 132.811 373.456 126.276 373.857C123.07 374.124 119.88 374.257 116.674 374.524L111.811 374.925L107.073 375.326C100.677 375.86 94.2811 376.528 88.0246 377.329C84.819 377.73 81.7527 378.13 78.7019 378.531C77.1688 378.65 75.6357 378.917 74.1025 379.184L71.8725 379.451L70.8969 379.584L70.0761 379.718C66.313 380.386 62.4104 380.519 58.5234 379.985C42.9443 377.863 34.0397 366.126 38.763 353.721L39.0417 352.934C41.9686 345.337 45.0194 337.591 48.0857 329.994C51.152 322.397 54.2027 314.799 57.4084 307.069L62.1472 295.613L67.0098 284.143C69.3792 278.415 71.8725 272.807 74.3813 267.079C65.198 256.41 57.8265 244.554 51.9882 232.283C45.995 219.492 41.6899 206.018 39.1811 192.293C36.533 178.567 35.7122 164.292 36.533 150.033C36.9511 142.836 37.7874 135.639 39.0417 128.309C40.2961 121.112 42.108 113.767 44.338 106.437C46.4132 99.1069 49.0613 91.7767 52.5457 84.3129Z" fill="#492403"/>
</g>
</svg>
